# xmcd CD database file
#
# Track frame offsets:
#	150
#	17927
#	31419
#	47409
#	75623
#	95223
#	111195
#	136052
#	150031
#	170636
#
# Disc length: 2696 seconds
#
# Revision: 0
# Processed by: cddbd v1.5.1PL0 Copyright (c) Steve Scherf et al.
# Submitted via: CDex 1.60beta1
#
DISCID=720a860a
DTITLE=Quincy Jones - Mellow Madness
DYEAR=1975
DGENRE=Jazz
TTITLE0=Is It Love That We're Missin'
TTITLE1=Paranoid
TTITLE2=Mellow Madness
TTITLE3=Beautiful Black Girl
TTITLE4=Listen (What It Is)
TTITLE5=Just A Little Taste Of Me
TTITLE6=My Cherie Amour
TTITLE7=Tryin' To Find Out About You
TTITLE8=Cry Baby
TTITLE9=Bluestte
EXTD=YEAR: 1975
EXTT0=
EXTT1=
EXTT2=
EXTT3=
EXTT4=
EXTT5=
EXTT6=
EXTT7=
EXTT8=
EXTT9=
PLAYORDER=
